# Blender v2.78 (sub 0) OBJ File: 'ship2.blend'
# www.blender.org
mtllib ship2.mtl
o ship_Cube
v -0.163412 0.595173 0.285378
v -0.091853 0.527652 -0.450295
v -0.339482 0.000056 -0.450295
v -0.230487 0.449329 0.929791
v -0.487333 0.204501 0.045222
v -0.487333 0.204501 0.919791
v -0.487333 0.106732 0.045222
v -0.487333 0.106732 0.919791
v -0.488139 0.086217 -0.113798
v -1.196457 0.098194 1.037111
v -1.196457 0.098194 0.406987
v -1.196457 0.080261 1.037111
v -1.196457 0.080261 0.406987
v -0.487333 0.225015 -0.116446
v -0.339482 0.311177 1.042530
v -0.243367 0.000056 -1.107672
v -0.339482 0.311177 -0.450295
v -1.196457 0.070179 0.394086
v -1.196457 0.108277 0.394086
v -1.196457 0.108277 1.050012
v -1.196457 0.070179 1.050012
v -1.233236 0.080261 0.406987
v -1.233236 0.098194 0.406987
v -1.233237 0.098194 1.037111
v -1.233237 0.080261 1.037111
v -1.256057 0.128764 1.050012
v -1.256057 0.128764 -0.279094
v -1.290288 0.109001 -0.279094
v -1.290288 0.069475 1.050012
v -1.290288 0.069475 -0.279094
v -1.221826 0.069475 1.050012
v -1.221826 0.069475 -0.279094
v -1.221826 0.109001 -0.279094
v -1.290288 0.109001 1.050012
v -1.221826 0.109001 1.050012
v -1.238941 0.099120 -0.279094
v -1.238941 0.079356 -0.279094
v -1.273172 0.079356 -0.279094
v -1.273172 0.099120 -0.279094
v -1.256057 0.109001 -0.279094
v -1.256057 0.128764 -0.129094
v -1.290288 0.069475 -0.129094
v -1.298846 0.113942 -0.179094
v -1.298846 0.064534 -0.179094
v -1.256057 0.138646 -0.179094
v -1.221826 0.069475 -0.129094
v -1.213268 0.113942 -0.179094
v -1.213268 0.064534 -0.179094
v -1.290288 0.109001 -0.129094
v -1.221826 0.109001 -0.179094
v -1.290288 0.109001 -0.179094
v -1.221826 0.069475 -0.179094
v -1.221826 0.109001 -0.129094
v -1.290288 0.069475 -0.179094
v -1.256057 0.128764 -0.179094
v -1.238941 0.099120 0.150012
v -1.238941 0.079356 0.150012
v -1.273172 0.079356 0.150012
v -1.273172 0.099120 0.150012
v -1.256057 0.109001 0.150012
v -1.298846 0.064534 -0.129094
v -1.256057 0.138646 -0.129094
v -1.213268 0.113942 -0.129094
v -1.298846 0.113942 -0.129094
v -1.213268 0.064534 -0.129094
v -0.091436 -0.002616 -1.256041
v -0.243340 0.085893 -1.109329
v -0.091409 0.158429 -1.257697
v -0.230487 0.516851 0.937814
v -0.487333 0.086217 1.042531
v -0.487333 0.225015 1.042531
v -0.230487 0.516851 1.073997
v -0.230487 0.449329 1.042531
v -0.339482 0.000056 1.042531
v -0.300956 0.216230 1.035524
v -0.302755 0.216230 1.185586
v -0.225751 0.346490 1.035524
v -0.218967 0.361355 1.185586
v -0.075340 0.346490 1.035524
v -0.067606 0.361355 1.185586
v -0.067606 0.071105 1.185586
v -0.075340 0.085971 1.035524
v -0.225751 0.085971 1.035524
v -0.218966 0.071105 1.185586
v -0.241117 0.399721 1.185586
v -0.347056 0.216230 1.185586
v -0.029240 0.399721 1.185586
v -0.029240 0.032739 1.185586
v -0.241117 0.032739 1.185586
v -0.210026 0.319254 1.075421
v -0.269507 0.216230 1.075421
v -0.102576 0.319254 1.075421
v -0.102576 0.113207 1.075421
v -0.210026 0.113207 1.075421
v 0.163412 0.595173 0.285378
v 0.091853 0.527652 -0.450295
v 0.339482 0.000056 -0.450295
v 0.230487 0.449329 0.929791
v 0.487333 0.204501 0.045222
v 0.487333 0.204501 0.919791
v 0.487333 0.106732 0.045222
v 0.487333 0.106732 0.919791
v 0.487333 0.225015 1.042531
v 0.488139 0.086217 -0.113798
v 1.196457 0.098194 1.037111
v 1.196457 0.098194 0.406987
v 1.196457 0.080261 1.037111
v 1.196457 0.080261 0.406987
v 0.487333 0.225015 -0.116446
v 0.339482 0.311177 1.042530
v 0.339482 0.000056 1.042531
v 0.243367 0.000056 -1.107672
v 0.339482 0.311177 -0.450295
v 1.196457 0.070179 0.394086
v 1.196457 0.108277 0.394086
v 1.196457 0.108277 1.050012
v 1.196457 0.070179 1.050012
v 1.233236 0.080261 0.406987
v 1.233236 0.098194 0.406987
v 1.233237 0.098194 1.037111
v 1.233237 0.080261 1.037111
v 1.256057 0.128764 1.050012
v 1.256057 0.128764 -0.279094
v 1.290288 0.109001 -0.279094
v 1.290288 0.069475 1.050012
v 1.290288 0.069475 -0.279094
v 1.221826 0.069475 1.050012
v 1.221826 0.069475 -0.279094
v 1.221826 0.109001 -0.279094
v 1.290288 0.109001 1.050012
v 1.221826 0.109001 1.050012
v 1.238941 0.099120 -0.279094
v 1.238941 0.079356 -0.279094
v 1.273172 0.079356 -0.279094
v 1.273172 0.099120 -0.279094
v 1.256057 0.109001 -0.279094
v 1.256057 0.128764 -0.129094
v 1.290288 0.069475 -0.129094
v 1.298846 0.113942 -0.179094
v 1.298846 0.064534 -0.179094
v 1.256057 0.138646 -0.179094
v 1.221826 0.069475 -0.129094
v 1.213268 0.113942 -0.179094
v 1.213268 0.064534 -0.179094
v 1.290288 0.109001 -0.129094
v 1.221826 0.109001 -0.179094
v 1.290288 0.109001 -0.179094
v 1.221826 0.069475 -0.179094
v 1.221826 0.109001 -0.129094
v 1.290288 0.069475 -0.179094
v 1.256057 0.128764 -0.179094
v 1.238941 0.099120 0.150012
v 1.238941 0.079356 0.150012
v 1.273172 0.079356 0.150012
v 1.273172 0.099120 0.150012
v 1.256057 0.109001 0.150012
v 0.000000 -0.002616 -1.256041
v 1.298846 0.064534 -0.129094
v 1.256057 0.138646 -0.129094
v 1.213268 0.113942 -0.129094
v 1.298846 0.113942 -0.129094
v 1.213268 0.064534 -0.129094
v 0.091436 -0.002616 -1.256041
v 0.243340 0.085893 -1.109329
v 0.091409 0.158429 -1.257697
v 0.230487 0.516851 0.937814
v 0.487333 0.086217 1.042531
v 0.230487 0.516851 1.073997
v 0.230487 0.449329 1.042531
v 0.300956 0.216230 1.035524
v 0.302755 0.216230 1.185586
v 0.225751 0.346490 1.035524
v 0.218967 0.361355 1.185586
v 0.075340 0.346490 1.035524
v 0.067606 0.361355 1.185586
v 0.067606 0.071105 1.185586
v 0.075340 0.085971 1.035524
v 0.225751 0.085971 1.035524
v 0.218966 0.071105 1.185586
v 0.241117 0.399721 1.185586
v 0.347056 0.216230 1.185586
v 0.029240 0.399721 1.185586
v 0.029240 0.032739 1.185586
v 0.241117 0.032739 1.185586
v 0.210026 0.319254 1.075421
v 0.269507 0.216230 1.075421
v 0.102576 0.319254 1.075421
v 0.102576 0.113207 1.075421
v 0.210026 0.113207 1.075421
vn -0.4414 -0.0000 -0.8973
vn -0.5035 0.8640 -0.0000
vn -0.7074 0.7067 -0.0149
vn -1.0000 -0.0000 -0.0000
vn -0.5023 -0.8647 0.0002
vn 0.0000 -1.0000 -0.0000
vn -1.0000 0.0034 0.0025
vn -0.9998 0.0193 0.0004
vn 0.0515 -0.9987 0.0000
vn 0.1806 0.0000 0.9836
vn -0.9895 -0.0005 -0.1444
vn -0.7851 0.6194 -0.0000
vn -0.1345 0.9909 -0.0000
vn 0.0000 -0.0103 -0.9999
vn 0.0000 1.0000 -0.0000
vn 0.0000 0.9094 -0.4159
vn 0.0000 0.9929 0.1192
vn 0.0000 0.0000 -1.0000
vn -0.5000 0.8660 -0.0000
vn 0.5000 0.8660 0.0000
vn 1.0000 0.0000 0.0000
vn 0.0000 0.0000 1.0000
vn 0.5000 -0.8660 0.0000
vn -0.5000 -0.8660 -0.0000
vn 0.0000 -0.9998 0.0180
vn -0.9145 -0.0007 -0.4045
vn -0.6975 -0.0095 -0.7165
vn -0.6306 0.7039 -0.3269
vn 0.0000 -1.0000 0.0016
vn -0.9949 0.0192 -0.0992
vn 0.0000 0.9958 -0.0914
vn -0.8369 0.4832 -0.2571
vn 0.0000 0.9425 -0.3343
vn 0.9559 0.0000 -0.2937
vn 0.0000 0.9341 0.3570
vn 0.0000 -0.9425 -0.3343
vn -0.8369 -0.4832 -0.2571
vn -0.9531 0.0000 0.3026
vn 0.8379 -0.4837 0.2529
vn 0.8379 0.4838 0.2529
vn 0.0000 -0.9341 0.3570
vn 0.4414 -0.0000 -0.8973
vn 0.5035 0.8640 -0.0000
vn 0.7074 0.7067 -0.0149
vn 0.5023 -0.8647 0.0002
vn 1.0000 0.0034 0.0025
vn 0.9998 0.0193 0.0004
vn -0.0515 -0.9987 0.0000
vn -0.1806 0.0000 0.9836
vn 0.9895 -0.0005 -0.1444
vn 0.7851 0.6194 -0.0000
vn 0.1345 0.9909 -0.0000
vn 0.9145 -0.0007 -0.4045
vn 0.6975 -0.0095 -0.7165
vn 0.6306 0.7039 -0.3269
vn 0.9949 0.0192 -0.0992
vn 0.8369 0.4832 -0.2571
vn -0.9559 0.0000 -0.2937
vn 0.8369 -0.4832 -0.2571
vn 0.9531 0.0000 0.3026
vn -0.8379 -0.4837 0.2529
vn -0.8379 0.4838 0.2529
vn 0.0000 -0.4224 0.9064
usemtl Material
s off
f 5//1 7//1 18//1 19//1
f 14//2 71//2 15//2 17//2
f 17//3 15//3 4//3 2//3
f 6//4 8//4 70//4 71//4
f 5//4 6//4 71//4 14//4
f 3//5 74//5 70//5 9//5
f 13//6 12//6 25//6 22//6
f 7//7 5//7 14//7 9//7
f 8//8 7//8 9//8 70//8
f 7//9 8//9 21//9 18//9
f 8//10 6//10 20//10 21//10
f 16//11 3//11 17//11 67//11
f 4//12 15//12 73//12
f 6//13 5//13 19//13 20//13
f 165//14 163//14 157//14 66//14 68//14
f 72//15 168//15 166//15 69//15
f 165//16 68//16 2//16 96//16
f 69//17 166//17 95//17 1//17
f 11//4 10//4 20//4 19//4
f 13//4 11//4 19//4 18//4
f 10//4 12//4 21//4 20//4
f 12//4 13//4 18//4 21//4
f 11//18 13//18 22//18 23//18
f 55//19 27//19 28//19 51//19
f 52//18 48//18 44//18 54//18
f 51//4 28//4 30//4 54//4
f 50//20 33//20 27//20 55//20
f 52//21 32//21 33//21 50//21
f 12//22 10//22 24//22 25//22
f 34//22 29//22 35//22
f 26//22 34//22 35//22
f 32//18 30//18 38//18 37//18
f 29//6 42//6 46//6 31//6
f 33//18 32//18 37//18 36//18
f 27//18 33//18 36//18 40//18
f 28//18 27//18 40//18 39//18
f 30//18 28//18 39//18 38//18
f 53//22 63//22 62//22 41//22
f 31//21 46//21 53//21 35//21
f 50//18 55//18 45//18 47//18
f 53//22 46//22 65//22 63//22
f 52//18 50//18 47//18 48//18
f 35//20 53//20 41//20 26//20
f 65//21 48//21 47//21 63//21
f 34//4 49//4 42//4 29//4
f 64//4 43//4 44//4 61//4
f 63//20 47//20 45//20 62//20
f 46//22 42//22 61//22 65//22
f 37//15 38//15 58//15 57//15
f 51//18 54//18 44//18 43//18
f 62//19 45//19 43//19 64//19
f 55//18 51//18 43//18 45//18
f 26//19 41//19 49//19 34//19
f 39//23 40//23 60//23 59//23
f 38//21 39//21 59//21 58//21
f 40//24 36//24 56//24 60//24
f 36//4 37//4 57//4 56//4
f 61//6 44//6 48//6 65//6
f 58//18 59//18 60//18 56//18 57//18
f 157//25 16//25 66//25
f 10//15 11//15 23//15 24//15
f 3//26 9//26 14//26 17//26
f 30//6 32//6 52//6 54//6
f 49//22 64//22 61//22 42//22
f 49//22 41//22 62//22 64//22
f 97//6 111//6 74//6 3//6
f 67//27 68//27 66//27 16//27
f 67//28 17//28 2//28 68//28
f 112//29 97//29 3//29 16//29 157//29
f 74//22 15//22 71//22 70//22
f 15//22 110//22 169//22 73//22
f 2//30 4//30 69//30 1//30
f 1//31 95//31 96//31 2//31
f 4//4 73//4 72//4 69//4
f 74//22 111//22 110//22 15//22
f 75//32 86//32 85//32 77//32
f 77//33 85//33 87//33 79//33
f 79//34 87//34 88//34 82//34
f 84//35 81//35 93//35 94//35
f 82//36 88//36 89//36 83//36
f 83//37 89//37 86//37 75//37
f 76//22 78//22 85//22 86//22
f 78//22 80//22 87//22 85//22
f 80//22 81//22 88//22 87//22
f 81//22 84//22 89//22 88//22
f 84//22 76//22 86//22 89//22
f 91//22 94//22 93//22
f 81//38 80//38 92//38 93//38
f 78//39 76//39 91//39 90//39
f 76//40 84//40 94//40 91//40
f 80//41 78//41 90//41 92//41
f 90//22 91//22 93//22 92//22
f 29//22 31//22 35//22
f 99//42 115//42 114//42 101//42
f 109//43 113//43 110//43 103//43
f 113//44 96//44 98//44 110//44
f 100//21 103//21 167//21 102//21
f 99//21 109//21 103//21 100//21
f 97//45 104//45 167//45 111//45
f 108//6 118//6 121//6 107//6
f 101//46 104//46 109//46 99//46
f 102//47 167//47 104//47 101//47
f 101//48 114//48 117//48 102//48
f 102//49 117//49 116//49 100//49
f 112//50 164//50 113//50 97//50
f 98//51 169//51 110//51
f 100//52 116//52 115//52 99//52
f 106//21 115//21 116//21 105//21
f 108//21 114//21 115//21 106//21
f 105//21 116//21 117//21 107//21
f 107//21 117//21 114//21 108//21
f 106//18 119//18 118//18 108//18
f 151//20 147//20 124//20 123//20
f 148//18 150//18 140//18 144//18
f 147//21 150//21 126//21 124//21
f 146//19 151//19 123//19 129//19
f 148//4 146//4 129//4 128//4
f 107//22 121//22 120//22 105//22
f 130//22 131//22 125//22
f 122//22 131//22 130//22
f 128//18 133//18 134//18 126//18
f 125//6 127//6 142//6 138//6
f 129//18 132//18 133//18 128//18
f 123//18 136//18 132//18 129//18
f 124//18 135//18 136//18 123//18
f 126//18 134//18 135//18 124//18
f 149//22 137//22 159//22 160//22
f 127//4 131//4 149//4 142//4
f 146//18 143//18 141//18 151//18
f 149//22 160//22 162//22 142//22
f 148//18 144//18 143//18 146//18
f 131//19 122//19 137//19 149//19
f 162//4 160//4 143//4 144//4
f 130//21 125//21 138//21 145//21
f 161//21 158//21 140//21 139//21
f 160//19 159//19 141//19 143//19
f 142//22 162//22 158//22 138//22
f 133//15 153//15 154//15 134//15
f 147//18 139//18 140//18 150//18
f 159//20 161//20 139//20 141//20
f 151//18 141//18 139//18 147//18
f 122//20 130//20 145//20 137//20
f 135//24 155//24 156//24 136//24
f 134//4 154//4 155//4 135//4
f 136//23 156//23 152//23 132//23
f 132//21 152//21 153//21 133//21
f 158//6 162//6 144//6 140//6
f 154//18 153//18 152//18 156//18 155//18
f 157//25 163//25 112//25
f 105//15 120//15 119//15 106//15
f 97//53 113//53 109//53 104//53
f 126//6 150//6 148//6 128//6
f 145//22 138//22 158//22 161//22
f 145//22 161//22 159//22 137//22
f 164//54 112//54 163//54 165//54
f 164//55 165//55 96//55 113//55
f 111//22 167//22 103//22 110//22
f 96//56 95//56 166//56 98//56
f 98//21 166//21 168//21 169//21
f 170//57 172//57 180//57 181//57
f 172//33 174//33 182//33 180//33
f 174//58 177//58 183//58 182//58
f 179//35 189//35 188//35 176//35
f 177//36 178//36 184//36 183//36
f 178//59 170//59 181//59 184//59
f 171//22 181//22 180//22 173//22
f 173//22 180//22 182//22 175//22
f 175//22 182//22 183//22 176//22
f 176//22 183//22 184//22 179//22
f 179//22 184//22 181//22 171//22
f 186//22 188//22 189//22
f 176//60 188//60 187//60 175//60
f 173//61 185//61 186//61 171//61
f 171//62 186//62 189//62 179//62
f 175//41 187//41 185//41 173//41
f 185//22 187//22 188//22 186//22
f 125//22 131//22 127//22
f 169//63 168//63 72//63 73//63
