# Blender v2.78 (sub 0) OBJ File: 'ship1.blend'
# www.blender.org
mtllib ship1.mtl
o ship_Cube
v 0.494088 -0.029820 -0.277127
v 0.494088 0.029820 -0.277127
v 0.190259 0.029820 -1.636994
v 0.190258 -0.149102 -0.277127
v 0.190259 -0.029820 -1.636994
v 0.190258 0.149102 -0.277127
v 0.993360 -0.029820 0.604667
v 0.993360 0.029820 0.604667
v 0.190258 -0.149102 0.776802
v 0.190258 0.149102 0.776802
v 0.111459 0.224825 -0.030614
v 0.111459 0.224825 0.776802
v 0.405084 0.161847 -0.020705
v 0.438901 0.156697 -0.020705
v 0.451418 0.086654 0.355230
v 0.409984 0.144781 -0.020705
v 0.505895 0.078357 0.300125
v 0.377620 0.133749 0.144444
v 0.323143 0.142046 0.199549
v 0.385917 0.188226 0.199549
v 0.385917 0.188226 0.300125
v 0.323143 0.142046 0.300125
v 0.377620 0.133749 0.355230
v 0.505895 0.078357 0.199549
v 0.451418 0.086654 0.144444
v 0.372283 0.098707 0.355230
v 0.317806 0.107004 0.300125
v 0.456755 0.121697 0.144444
v 0.465052 0.176173 0.199549
v 0.511232 0.113400 0.199549
v 0.456755 0.121697 0.355230
v 0.511232 0.113400 0.300125
v 0.465052 0.176173 0.300125
v 0.317806 0.107004 0.199549
v 0.372283 0.098707 0.144444
v 0.429143 0.141863 -0.020705
v 0.397308 0.165143 -0.020705
v 0.447306 0.157528 -0.020705
v 0.404551 0.139909 -0.020705
v 0.432879 0.135595 -0.020705
v 0.447306 0.157528 0.178444
v 0.432879 0.135595 0.154589
v 0.404551 0.139909 0.154589
v 0.397308 0.165143 0.178444
v 0.438901 0.156697 0.085219
v 0.429143 0.141863 0.085219
v 0.405084 0.161848 0.085219
v 0.409984 0.144781 0.085219
v 0.692197 0.074551 0.669218
v 0.692197 -0.074551 0.669218
v 0.448393 -0.009940 1.938320
v 0.448393 0.009940 1.938320
v 0.391034 0.039761 0.733768
v 0.391034 -0.039761 0.733768
v 0.262754 0.037560 0.738285
v 0.252843 0.014214 0.843286
v 0.262754 -0.066048 0.738285
v 0.252842 -0.060272 0.843286
v 0.296668 0.050243 0.843286
v 0.296668 -0.104098 0.843286
v 0.233334 0.013374 0.786202
v 0.233334 -0.036628 0.786202
v -0.233334 -0.036628 0.786202
v -0.233334 0.013374 0.786202
v 0.423109 0.166601 -0.020705
v 0.423957 0.172171 0.189405
v 0.423957 0.172171 -0.020705
v 0.423109 0.166601 0.085219
v -0.494088 -0.029820 -0.277128
v -0.494088 0.029820 -0.277128
v -0.190258 0.029820 -1.636995
v -0.190258 -0.149102 -0.277128
v -0.190258 -0.029820 -1.636995
v -0.190258 0.149102 -0.277128
v -0.993361 -0.029820 0.604666
v -0.993361 0.029820 0.604666
v -0.190259 -0.149102 0.776802
v -0.190259 0.149102 0.776802
v -0.111459 0.224825 -0.030614
v -0.111459 0.224825 0.776802
v -0.405084 0.161847 -0.020705
v -0.438901 0.156697 -0.020705
v -0.451419 0.086654 0.355230
v -0.409984 0.144781 -0.020705
v -0.505895 0.078357 0.300125
v -0.377620 0.133749 0.144444
v -0.323143 0.142046 0.199549
v -0.385917 0.188226 0.199549
v -0.385917 0.188226 0.300125
v -0.323143 0.142046 0.300125
v -0.377620 0.133749 0.355230
v -0.505895 0.078357 0.199549
v -0.451418 0.086654 0.144444
v -0.372283 0.098707 0.355230
v -0.317806 0.107004 0.300125
v -0.456755 0.121697 0.144444
v -0.465052 0.176173 0.199549
v -0.511232 0.113400 0.199549
v -0.456756 0.121697 0.355230
v -0.511232 0.113400 0.300125
v -0.465053 0.176173 0.300125
v -0.317806 0.107004 0.199549
v -0.372283 0.098707 0.144444
v -0.429143 0.141863 -0.020705
v -0.397308 0.165143 -0.020705
v -0.447306 0.157528 -0.020705
v -0.404551 0.139909 -0.020705
v -0.432879 0.135595 -0.020705
v -0.447306 0.157528 0.178444
v -0.432879 0.135595 0.154589
v -0.404551 0.139909 0.154589
v -0.397308 0.165143 0.178444
v -0.438901 0.156697 0.085219
v -0.429143 0.141863 0.085219
v -0.405084 0.161848 0.085219
v -0.409984 0.144781 0.085219
v -0.692198 0.074551 0.669217
v -0.692197 -0.074551 0.669217
v -0.448395 -0.009940 1.938320
v -0.448395 0.009940 1.938320
v -0.391034 0.039761 0.733768
v -0.391034 -0.039761 0.733768
v -0.000000 0.089363 0.738285
v -0.000000 0.082744 0.843286
v -0.262754 0.037560 0.738285
v -0.252843 0.014214 0.843286
v -0.262754 -0.066048 0.738285
v -0.252843 -0.060272 0.843286
v -0.296669 0.050243 0.843285
v -0.000000 0.127413 0.843286
v -0.296668 -0.104098 0.843285
v -0.233335 0.013374 0.786202
v -0.000000 0.059377 0.786202
v -0.233335 -0.036628 0.786202
v -0.000000 -0.036628 0.786202
v 0.233334 -0.036628 0.786202
v 0.233334 0.013374 0.786202
v -0.423109 0.166601 -0.020705
v -0.423957 0.172171 0.189404
v -0.423957 0.172171 -0.020705
v -0.423109 0.166601 0.085219
vn 0.3642 -0.9277 -0.0814
vn 0.0000 -0.9962 -0.0874
vn 0.3642 0.9277 -0.0814
vn 0.0000 -1.0000 0.0000
vn -0.0000 0.0000 1.0000
vn 0.6929 0.7210 0.0000
vn 0.2096 -0.0000 0.9778
vn 0.0000 0.9559 -0.2936
vn 0.0000 1.0000 0.0000
vn 0.0000 0.0000 -1.0000
vn 0.1506 0.9886 0.0000
vn -0.9612 -0.2759 0.0000
vn 0.9886 -0.1506 0.0000
vn -0.9886 0.1506 -0.0000
vn 0.3579 -0.9115 -0.2026
vn 0.1065 0.6990 -0.7071
vn -0.4838 0.6577 -0.5774
vn -0.4838 0.6577 0.5774
vn -0.8355 0.5495 -0.0000
vn -0.5313 -0.8472 0.0000
vn 0.6577 0.4838 -0.5774
vn 0.6577 0.4838 0.5774
vn -0.6990 0.1065 -0.7071
vn 0.6990 -0.1065 -0.7071
vn -0.5926 0.8055 -0.0000
vn 0.6990 -0.1065 0.7071
vn -0.1506 -0.9886 0.0000
vn 0.8055 0.5926 0.0000
vn 0.8355 -0.5495 -0.0000
vn -0.6990 0.1065 0.7071
vn 0.1065 0.6990 0.7071
vn 0.5313 0.8472 -0.0000
vn -0.2550 0.9669 0.0000
vn 0.2550 -0.9669 0.0000
vn 0.9612 0.2759 -0.0000
vn 0.3579 0.9115 -0.2026
vn 0.1469 -0.9891 0.0000
vn 0.1635 -0.9832 0.0815
vn 0.1635 0.9832 0.0815
vn 0.1469 0.9891 0.0000
vn -0.1084 0.9937 0.0298
vn -0.1084 -0.9937 0.0298
vn 0.9759 0.0000 -0.2180
vn 0.9257 0.0000 0.3783
vn -0.9989 0.0000 0.0476
vn 0.8702 0.0000 -0.4927
vn 0.9516 -0.0000 -0.3074
vn 0.2168 0.9404 -0.2622
vn -0.0000 0.9239 0.3827
vn -0.9463 0.0000 0.3234
vn -0.2227 -0.9453 0.2385
vn -0.3642 -0.9277 -0.0814
vn -0.3642 0.9277 -0.0814
vn -0.6929 0.7210 -0.0000
vn -0.2096 -0.0000 0.9778
vn -0.1506 0.9886 -0.0000
vn 0.9612 -0.2759 0.0000
vn -0.9886 -0.1506 -0.0000
vn 0.9886 0.1506 0.0000
vn -0.3579 -0.9115 -0.2026
vn -0.1065 0.6990 -0.7071
vn 0.4838 0.6577 -0.5774
vn 0.4838 0.6577 0.5774
vn 0.8355 0.5495 0.0000
vn 0.5313 -0.8472 0.0000
vn -0.6577 0.4838 -0.5774
vn -0.6577 0.4838 0.5773
vn 0.6990 0.1065 -0.7071
vn -0.6990 -0.1065 -0.7071
vn 0.5926 0.8055 0.0000
vn -0.6990 -0.1065 0.7071
vn 0.1506 -0.9886 0.0000
vn -0.8055 0.5926 -0.0000
vn -0.8355 -0.5495 -0.0000
vn 0.6990 0.1065 0.7071
vn -0.1065 0.6990 0.7071
vn -0.5313 0.8472 -0.0000
vn 0.2550 0.9669 0.0000
vn -0.2550 -0.9669 0.0000
vn -0.9612 0.2759 -0.0000
vn -0.3579 0.9115 -0.2026
vn -0.1469 -0.9891 -0.0000
vn -0.1635 -0.9832 0.0815
vn -0.1635 0.9832 0.0815
vn -0.1469 0.9891 -0.0000
vn 0.1084 0.9937 0.0298
vn 0.1084 -0.9937 0.0298
vn -0.9759 0.0000 -0.2181
vn -0.9257 0.0000 0.3783
vn 0.9989 0.0000 0.0476
vn -0.8702 0.0000 -0.4927
vn -0.9516 -0.0000 -0.3074
vn -0.2168 0.9404 -0.2622
vn 0.9463 0.0000 0.3234
vn 0.2227 -0.9453 0.2385
vn 0.0000 0.9962 -0.0874
vn 0.0000 -0.9402 -0.3407
usemtl Material
s off
f 5//1 1//1 4//1
f 4//2 72//2 73//2 5//2
f 3//3 6//3 2//3
f 9//4 77//4 72//4 4//4
f 12//5 80//5 78//5 10//5
f 10//6 6//6 11//6 12//6
f 54//7 53//7 10//7 9//7
f 74//8 79//8 11//8 6//8
f 79//9 80//9 12//9 11//9
f 5//10 73//10 71//10 3//10
f 29//11 20//11 21//11 33//11
f 39//12 43//12 44//12 37//12
f 32//13 17//13 24//13 30//13
f 28//10 25//10 35//10 18//10
f 19//14 34//14 27//14 22//14
f 4//15 1//15 7//15
f 43//16 18//16 20//16 44//16
f 18//17 19//17 20//17
f 21//18 22//18 23//18
f 36//19 46//19 45//19 14//19
f 14//20 45//20 68//20 65//20
f 28//21 29//21 30//21
f 31//22 32//22 33//22
f 39//10 37//10 13//10 16//10
f 34//23 19//23 18//23 35//23
f 30//24 24//24 25//24 28//24
f 19//25 22//25 21//25 20//25
f 31//26 15//26 17//26 32//26
f 28//16 18//16 43//16 42//16
f 42//27 43//27 39//27 40//27
f 29//28 33//28 32//28 30//28
f 42//29 40//29 38//29 41//29
f 26//30 23//30 22//30 27//30
f 41//16 66//16 44//16 20//16 29//16
f 23//31 31//31 33//31 21//31
f 23//5 26//5 15//5 31//5
f 66//32 41//32 38//32 67//32
f 44//33 66//33 67//33 37//33
f 65//34 68//34 47//34 13//34
f 37//10 67//10 65//10 13//10
f 40//10 39//10 16//10 36//10
f 42//16 41//16 29//16 28//16
f 47//10 68//10 45//10 46//10 48//10
f 16//35 13//35 47//35 48//35
f 40//10 36//10 14//10 38//10
f 36//11 16//11 48//11 46//11
f 2//36 6//36 8//36
f 9//37 4//37 7//37 50//37
f 50//7 54//7 9//7
f 50//38 7//38 51//38
f 8//39 49//39 52//39
f 6//40 10//40 49//40 8//40
f 49//41 53//41 52//41
f 54//42 50//42 51//42
f 53//7 49//7 10//7
f 77//5 9//5 10//5 78//5
f 5//43 3//43 2//43 1//43
f 7//44 8//44 52//44 51//44
f 53//45 54//45 51//45 52//45
f 1//46 2//46 8//46 7//46
f 59//47 60//47 57//47 55//47
f 128//5 131//5 60//5 58//5
f 130//48 59//48 55//48 123//48
f 124//5 56//5 59//5 130//5
f 56//5 58//5 60//5 59//5
f 135//49 134//49 128//49 58//49 62//49
f 61//5 133//5 64//5 63//5 135//5 62//5
f 58//50 56//50 61//50 62//50
f 56//51 124//51 133//51 61//51
f 38//10 14//10 65//10 67//10
f 73//52 72//52 69//52
f 71//53 70//53 74//53
f 78//54 80//54 79//54 74//54
f 122//55 77//55 78//55 121//55
f 97//56 101//56 89//56 88//56
f 107//57 105//57 112//57 111//57
f 100//58 98//58 92//58 85//58
f 96//10 86//10 103//10 93//10
f 87//59 90//59 95//59 102//59
f 72//60 75//60 69//60
f 111//61 112//61 88//61 86//61
f 86//62 88//62 87//62
f 89//63 91//63 90//63
f 104//64 82//64 113//64 114//64
f 82//65 138//65 141//65 113//65
f 96//66 98//66 97//66
f 99//67 101//67 100//67
f 107//10 84//10 81//10 105//10
f 102//68 103//68 86//68 87//68
f 98//69 96//69 93//69 92//69
f 87//70 88//70 89//70 90//70
f 99//71 100//71 85//71 83//71
f 96//61 110//61 111//61 86//61
f 110//72 108//72 107//72 111//72
f 97//73 98//73 100//73 101//73
f 110//74 109//74 106//74 108//74
f 94//75 95//75 90//75 91//75
f 109//61 97//61 88//61 112//61 139//61
f 91//76 89//76 101//76 99//76
f 91//5 99//5 83//5 94//5
f 139//77 140//77 106//77 109//77
f 112//78 105//78 140//78 139//78
f 138//79 81//79 115//79 141//79
f 105//10 81//10 138//10 140//10
f 108//10 104//10 84//10 107//10
f 110//61 96//61 97//61 109//61
f 115//10 116//10 114//10 113//10 141//10
f 84//80 116//80 115//80 81//80
f 108//10 106//10 82//10 104//10
f 104//56 114//56 116//56 84//56
f 70//81 76//81 74//81
f 77//82 118//82 75//82 72//82
f 118//55 77//55 122//55
f 118//83 119//83 75//83
f 76//84 120//84 117//84
f 74//85 76//85 117//85 78//85
f 117//86 120//86 121//86
f 122//87 119//87 118//87
f 121//55 78//55 117//55
f 73//88 69//88 70//88 71//88
f 75//89 119//89 120//89 76//89
f 121//90 120//90 119//90 122//90
f 69//91 75//91 76//91 70//91
f 129//92 125//92 127//92 131//92
f 130//93 123//93 125//93 129//93
f 124//5 130//5 129//5 126//5
f 126//5 129//5 131//5 128//5
f 132//5 134//5 135//5 136//5 137//5 133//5
f 128//94 134//94 132//94 126//94
f 126//95 132//95 133//95 124//95
f 106//10 140//10 138//10 82//10
f 71//96 74//96 6//96 3//96
f 127//97 57//97 60//97 131//97
