# Blender v2.78 (sub 0) OBJ File: 'ship3.blend'
# www.blender.org
mtllib ship3.mtl
o ship_Cube
v 0.375354 -0.124784 -0.547745
v 0.375354 -0.055034 -0.547745
v 0.132503 -0.059321 -1.439232
v 0.132503 -0.121713 -1.439232
v 0.391874 -0.124784 0.518728
v 0.132503 0.124784 0.518728
v 0.391874 -0.055034 0.518728
v 0.385679 -0.124784 -0.066553
v 0.132503 0.124784 -0.547745
v 0.385679 -0.055034 -0.066553
v 1.169454 -0.124784 0.194887
v 1.169454 -0.124784 0.510465
v 1.169454 -0.055034 0.510465
v 1.169454 -0.055034 0.194887
v 1.240338 -0.055034 -0.237329
v 1.240338 -0.124784 -0.237329
v 1.169455 -0.124784 -0.237329
v 1.169455 -0.055034 -0.237329
v 1.240338 -0.055034 0.586535
v 1.240338 -0.124784 0.586535
v 1.169454 -0.124784 0.586535
v 1.169454 -0.055034 0.586535
v 0.867773 -0.144633 -0.213846
v 0.794411 -0.102277 -0.213846
v 0.794411 -0.132091 -0.213846
v 0.794411 -0.132091 0.287554
v 0.841954 -0.159539 -0.213846
v 0.841954 -0.159539 0.287554
v 0.841954 -0.214437 -0.213846
v 0.746868 -0.214437 -0.213846
v 0.746868 -0.159539 -0.213846
v 0.746868 -0.159539 0.287555
v 0.867773 -0.229344 -0.213846
v 0.721048 -0.229344 -0.213846
v 0.721048 -0.144633 -0.213846
v 0.721048 -0.144633 -0.315610
v 0.794411 -0.102277 -0.315610
v 0.721048 -0.229344 -0.315610
v 0.867773 -0.229344 -0.315610
v 0.867773 -0.144633 -0.315610
v 1.052273 -0.139949 -0.031567
v 0.995395 -0.107110 -0.031567
v 0.995395 -0.130225 -0.031567
v 0.995394 -0.130225 0.287554
v 1.032255 -0.151507 -0.031567
v 1.032255 -0.151507 0.287554
v 1.032255 -0.194070 -0.031567
v 0.958534 -0.194070 -0.031567
v 0.958534 -0.151507 -0.031567
v 0.958534 -0.151507 0.287554
v 1.052273 -0.205627 -0.031567
v 0.938516 -0.205627 -0.031567
v 0.938516 -0.139949 -0.031567
v 0.938516 -0.139949 -0.110465
v 0.995395 -0.107110 -0.110465
v 0.938516 -0.205627 -0.110465
v 1.052273 -0.205627 -0.110465
v 1.052273 -0.139949 -0.110465
v 0.757279 -0.165550 -0.315610
v 0.794411 -0.144112 -0.315610
v 0.757279 -0.208426 -0.315610
v 0.831543 -0.208426 -0.315610
v 0.831543 -0.165550 -0.315610
v 0.963984 -0.154654 -0.110465
v 0.995395 -0.136519 -0.110465
v 0.963984 -0.190923 -0.110465
v 1.026805 -0.190923 -0.110465
v 1.026805 -0.154654 -0.110465
v 0.963984 -0.154654 0.068930
v 0.995395 -0.136519 0.068930
v 0.963984 -0.190923 0.068930
v 1.026805 -0.190923 0.068930
v 1.026805 -0.154654 0.068930
v 0.757279 -0.165550 -0.102880
v 0.794411 -0.144112 -0.102880
v 0.757279 -0.208426 -0.102880
v 0.831543 -0.208426 -0.102880
v 0.831543 -0.165550 -0.102880
v 0.746868 -0.089797 0.340557
v 0.841954 -0.214437 0.340557
v 0.746868 -0.214437 0.340556
v 0.958534 -0.089797 0.340556
v 1.032255 -0.194070 0.340556
v 0.958534 -0.194070 0.340556
v 0.841954 -0.089797 0.287554
v 0.746868 -0.089797 0.287554
v 1.032255 -0.089797 0.287554
v 0.958534 -0.089797 0.287554
v 0.841954 -0.089797 0.340557
v 0.132503 0.220738 0.595051
v 1.032255 -0.089797 0.340556
v 0.132503 0.220738 -0.403462
v 0.207938 0.009184 0.518728
v 0.207938 -0.055034 0.518728
v 0.255509 -0.007258 0.595051
v 0.255509 -0.046243 0.595051
v 0.281290 0.014847 0.595051
v 0.281290 -0.072024 0.595051
v 0.188880 -0.007157 0.529728
v 0.188880 -0.035976 0.529728
v -0.375354 -0.124784 -0.547745
v -0.375354 -0.055034 -0.547745
v 0.000000 -0.123248 -1.532442
v -0.132502 -0.059321 -1.439232
v -0.132502 -0.121713 -1.439232
v -0.391874 -0.124784 0.518728
v -0.132503 0.124784 0.518728
v -0.391874 -0.055034 0.518728
v -0.385679 -0.124784 -0.066553
v -0.132503 0.124784 -0.547745
v -0.385679 -0.055034 -0.066553
v -1.169455 -0.124784 0.194886
v -1.169455 -0.124784 0.510464
v -1.169455 -0.055034 0.510464
v -1.169455 -0.055034 0.194886
v -1.240338 -0.055034 -0.237330
v -1.240338 -0.124784 -0.237330
v -1.169454 -0.124784 -0.237330
v -1.169454 -0.055034 -0.237330
v -1.240338 -0.055034 0.586535
v -1.240338 -0.124784 0.586535
v -1.169455 -0.124784 0.586535
v -1.169455 -0.055034 0.586535
v -0.867773 -0.144633 -0.213846
v -0.794411 -0.102277 -0.213846
v -0.794411 -0.132091 -0.213846
v -0.794411 -0.132091 0.287554
v -0.841954 -0.159539 -0.213846
v -0.841954 -0.159539 0.287554
v -0.841954 -0.214437 -0.213846
v -0.746868 -0.214437 -0.213846
v -0.746868 -0.159539 -0.213846
v -0.746868 -0.159539 0.287554
v -0.867773 -0.229344 -0.213846
v -0.721048 -0.229344 -0.213846
v -0.721048 -0.144633 -0.213846
v -0.721048 -0.144633 -0.315610
v -0.794411 -0.102277 -0.315610
v -0.721048 -0.229344 -0.315610
v -0.867773 -0.229344 -0.315610
v -0.867773 -0.144633 -0.315610
v -1.052273 -0.139949 -0.031568
v -0.995395 -0.107110 -0.031568
v -0.995395 -0.130225 -0.031568
v -0.995395 -0.130225 0.287554
v -1.032255 -0.151507 -0.031568
v -1.032255 -0.151507 0.287554
v -1.032255 -0.194070 -0.031568
v -0.958534 -0.194070 -0.031568
v -0.958534 -0.151507 -0.031568
v -0.958534 -0.151507 0.287554
v -1.052273 -0.205627 -0.031568
v -0.938516 -0.205627 -0.031568
v -0.938516 -0.139949 -0.031568
v -0.938516 -0.139949 -0.110466
v -0.995395 -0.107110 -0.110466
v -0.938516 -0.205627 -0.110466
v -1.052273 -0.205627 -0.110466
v -1.052273 -0.139949 -0.110466
v -0.757279 -0.165550 -0.315610
v -0.794411 -0.144112 -0.315610
v -0.757279 -0.208426 -0.315610
v -0.831542 -0.208426 -0.315610
v -0.831542 -0.165550 -0.315610
v -0.963984 -0.154654 -0.110466
v -0.995395 -0.136519 -0.110466
v -0.963984 -0.190923 -0.110466
v -1.026805 -0.190923 -0.110466
v -1.026805 -0.154654 -0.110466
v -0.963984 -0.154654 0.068929
v -0.995395 -0.136519 0.068929
v -0.963984 -0.190923 0.068929
v -1.026805 -0.190923 0.068929
v -1.026805 -0.154654 0.068929
v -0.757279 -0.165550 -0.102881
v -0.794411 -0.144112 -0.102881
v -0.757279 -0.208426 -0.102881
v -0.831543 -0.208426 -0.102881
v -0.831543 -0.165550 -0.102881
v -0.746868 -0.089797 0.340556
v -0.841954 -0.214437 0.340556
v -0.746868 -0.214437 0.340556
v -0.958534 -0.089797 0.340556
v -1.032255 -0.194070 0.340556
v -0.958534 -0.194070 0.340556
v -0.841954 -0.089797 0.287554
v -0.746868 -0.089797 0.287554
v -1.032255 -0.089797 0.287554
v -0.958534 -0.089797 0.287554
v -0.841954 -0.089797 0.340556
v -0.132503 0.220738 0.595051
v -1.032255 -0.089797 0.340556
v -0.132503 0.220738 -0.403462
v -0.000000 0.041293 0.518728
v -0.207938 0.009184 0.518728
v -0.207938 -0.055034 0.518728
v -0.255509 -0.007258 0.595051
v -0.000000 0.032196 0.595051
v -0.255509 -0.046243 0.595051
v -0.281290 0.014847 0.595051
v -0.000000 0.058283 0.595051
v -0.281290 -0.072024 0.595051
v -0.188880 -0.007157 0.529728
v -0.000000 0.022009 0.529728
v -0.188880 -0.035976 0.529728
v 0.000000 -0.077911 -1.532442
vn 0.5757 0.8176 -0.0022
vn -0.0000 0.0000 1.0000
vn 0.5870 0.7928 -0.1637
vn 0.0000 -1.0000 -0.0034
vn 0.9648 -0.0000 -0.2628
vn 0.9998 0.0000 -0.0215
vn 0.0000 -0.9761 -0.2173
vn 0.5950 0.8036 -0.0128
vn 0.0000 -1.0000 -0.0000
vn 0.0000 1.0000 0.0000
vn 0.0106 0.0000 0.9999
vn 0.3164 -0.0000 -0.9486
vn 0.0000 0.8327 -0.5538
vn -1.0000 0.0000 -0.0000
vn 1.0000 0.0000 0.0000
vn 0.0000 -0.0000 -1.0000
vn 0.5000 0.8660 0.0000
vn -0.5000 0.8660 0.0000
vn -0.5000 -0.8660 0.0000
vn 0.5000 -0.8660 0.0000
vn -0.0000 -0.6225 0.7826
vn 0.1490 0.9652 -0.2149
vn 0.7210 -0.0000 -0.6929
vn -0.0000 0.9879 0.1553
vn -0.7001 0.0000 0.7141
vn -0.1508 -0.9768 0.1523
vn -0.5757 0.8176 -0.0022
vn -0.5870 0.7928 -0.1637
vn 0.0000 -0.9999 0.0165
vn -0.9648 -0.0000 -0.2628
vn -0.9998 0.0000 -0.0215
vn -0.5950 0.8036 -0.0128
vn -0.0106 0.0000 0.9999
vn -0.3164 -0.0000 -0.9486
vn -0.1490 0.9652 -0.2149
vn -0.7210 0.0000 -0.6929
vn 0.7001 0.0000 0.7141
vn 0.1508 -0.9768 0.1523
vn 0.0000 0.9793 -0.2022
vn 0.5754 0.0000 -0.8179
vn -0.5754 -0.0000 -0.8179
vn 0.0000 0.9807 -0.1956
usemtl Material
s off
f 9//1 6//1 7//1 10//1
f 108//2 106//2 5//2 7//2
f 6//2 107//2 108//2 7//2
f 3//3 9//3 2//3
f 4//4 1//4 101//4 105//4
f 3//5 2//5 1//5 4//5
f 2//6 10//6 8//6 1//6
f 196//7 94//7 98//7 202//7
f 9//8 10//8 2//8
f 109//9 101//9 1//9 8//9
f 10//10 7//10 13//10 14//10
f 109//9 8//9 5//9 106//9
f 14//10 13//10 19//10 15//10
f 5//9 8//9 11//9 12//9
f 7//11 5//11 12//11 13//11
f 8//12 10//12 14//12 11//12
f 110//13 193//13 92//13 9//13
f 13//14 12//14 21//14 22//14
f 12//9 11//9 16//9 20//9
f 22//2 21//2 20//2 19//2
f 19//15 20//15 16//15 15//15
f 12//9 20//9 21//9
f 19//10 13//10 22//10
f 17//16 18//16 15//16 16//16
f 14//10 15//10 18//10
f 11//14 14//14 18//14 17//14
f 16//9 11//9 17//9
f 34//14 35//14 36//14 38//14
f 25//2 27//2 23//2 24//2
f 25//17 26//17 28//17 27//17
f 39//16 38//16 61//16 62//16
f 30//2 31//2 35//2 34//2
f 27//15 28//15 80//15 29//15
f 35//18 24//18 37//18 36//18
f 31//2 25//2 24//2 35//2
f 47//2 48//2 52//2 51//2
f 56//16 54//16 64//16 66//16
f 34//9 38//9 39//9 33//9
f 24//17 23//17 40//17 37//17
f 30//14 81//14 32//14 31//14
f 27//2 29//2 33//2 23//2
f 31//18 32//18 26//18 25//18
f 23//15 33//15 39//15 40//15
f 52//14 53//14 54//14 56//14
f 43//2 45//2 41//2 42//2
f 43//17 44//17 46//17 45//17
f 57//16 56//16 66//16 67//16
f 48//2 49//2 53//2 52//2
f 45//15 46//15 83//15 47//15
f 53//18 42//18 55//18 54//18
f 49//2 43//2 42//2 53//2
f 61//10 76//10 77//10 62//10
f 52//9 56//9 57//9 51//9
f 50//14 84//14 82//14 88//14
f 42//17 41//17 58//17 55//17
f 48//14 84//14 50//14 49//14
f 45//2 47//2 51//2 41//2
f 49//18 50//18 44//18 43//18
f 41//15 51//15 57//15 58//15
f 60//19 63//19 78//19 75//19
f 83//9 84//9 48//9 47//9
f 55//16 58//16 68//16 65//16
f 66//10 71//10 72//10 67//10
f 36//16 37//16 60//16 59//16
f 40//16 39//16 62//16 63//16
f 38//16 36//16 59//16 61//16
f 54//16 55//16 65//16 64//16
f 37//16 40//16 63//16 60//16
f 58//16 57//16 67//16 68//16
f 70//16 73//16 72//16 71//16 69//16
f 66//15 64//15 69//15 71//15
f 68//14 67//14 72//14 73//14
f 64//20 65//20 70//20 69//20
f 65//19 68//19 73//19 70//19
f 75//16 78//16 77//16 76//16 74//16
f 80//9 81//9 30//9 29//9
f 61//15 59//15 74//15 76//15
f 63//14 62//14 77//14 78//14
f 59//20 60//20 75//20 74//20
f 80//2 79//2 81//2
f 83//2 82//2 84//2
f 26//16 32//16 86//16
f 32//14 81//14 79//14 86//14
f 28//16 26//16 86//16 85//16
f 82//2 83//2 91//2
f 80//15 28//15 85//15 89//15
f 83//15 46//15 87//15 91//15
f 79//2 80//2 89//2
f 46//16 44//16 88//16 87//16
f 44//16 50//16 88//16
f 92//10 193//10 191//10 90//10
f 90//21 191//21 107//21 6//21
f 6//15 9//15 92//15 90//15
f 194//22 201//22 97//22 93//22
f 93//23 97//23 98//23 94//23
f 199//2 202//2 98//2 96//2
f 198//2 95//2 97//2 201//2
f 95//2 96//2 98//2 97//2
f 100//24 205//24 199//24 96//24
f 96//25 95//25 99//25 100//25
f 95//26 198//26 204//26 99//26
f 29//2 30//2 34//2 33//2
f 110//27 111//27 108//27 107//27
f 104//28 102//28 110//28
f 103//29 4//29 105//29
f 104//30 105//30 101//30 102//30
f 102//31 101//31 109//31 111//31
f 110//32 102//32 111//32
f 111//10 115//10 114//10 108//10
f 115//10 116//10 120//10 114//10
f 106//9 113//9 112//9 109//9
f 108//33 114//33 113//33 106//33
f 109//34 112//34 115//34 111//34
f 114//15 123//15 122//15 113//15
f 113//9 121//9 117//9 112//9
f 123//2 120//2 121//2 122//2
f 120//14 116//14 117//14 121//14
f 113//9 122//9 121//9
f 120//10 123//10 114//10
f 118//16 117//16 116//16 119//16
f 115//10 119//10 116//10
f 112//15 118//15 119//15 115//15
f 117//9 118//9 112//9
f 135//15 139//15 137//15 136//15
f 126//2 125//2 124//2 128//2
f 126//18 128//18 129//18 127//18
f 140//16 163//16 162//16 139//16
f 131//2 135//2 136//2 132//2
f 128//14 130//14 181//14 129//14
f 136//17 137//17 138//17 125//17
f 132//2 136//2 125//2 126//2
f 148//2 152//2 153//2 149//2
f 157//16 167//16 165//16 155//16
f 135//9 134//9 140//9 139//9
f 125//18 138//18 141//18 124//18
f 131//15 132//15 133//15 182//15
f 128//2 124//2 134//2 130//2
f 132//17 126//17 127//17 133//17
f 124//14 141//14 140//14 134//14
f 153//15 157//15 155//15 154//15
f 144//2 143//2 142//2 146//2
f 144//18 146//18 147//18 145//18
f 158//16 168//16 167//16 157//16
f 149//2 153//2 154//2 150//2
f 146//14 148//14 184//14 147//14
f 154//17 155//17 156//17 143//17
f 150//2 154//2 143//2 144//2
f 162//10 163//10 178//10 177//10
f 153//9 152//9 158//9 157//9
f 151//15 189//15 183//15 185//15
f 143//18 156//18 159//18 142//18
f 149//15 150//15 151//15 185//15
f 146//2 142//2 152//2 148//2
f 150//17 144//17 145//17 151//17
f 142//14 159//14 158//14 152//14
f 161//20 176//20 179//20 164//20
f 184//9 148//9 149//9 185//9
f 156//16 166//16 169//16 159//16
f 167//10 168//10 173//10 172//10
f 137//16 160//16 161//16 138//16
f 141//16 164//16 163//16 140//16
f 139//16 162//16 160//16 137//16
f 155//16 165//16 166//16 156//16
f 138//16 161//16 164//16 141//16
f 159//16 169//16 168//16 158//16
f 171//16 170//16 172//16 173//16 174//16
f 167//14 172//14 170//14 165//14
f 169//15 174//15 173//15 168//15
f 165//19 170//19 171//19 166//19
f 166//20 171//20 174//20 169//20
f 176//16 175//16 177//16 178//16 179//16
f 181//9 130//9 131//9 182//9
f 162//14 177//14 175//14 160//14
f 164//15 179//15 178//15 163//15
f 160//19 175//19 176//19 161//19
f 181//2 182//2 180//2
f 184//2 185//2 183//2
f 127//16 187//16 133//16
f 133//15 187//15 180//15 182//15
f 129//16 186//16 187//16 127//16
f 183//2 192//2 184//2
f 181//14 190//14 186//14 129//14
f 184//14 192//14 188//14 147//14
f 180//2 190//2 181//2
f 147//16 188//16 189//16 145//16
f 145//16 189//16 151//16
f 107//14 191//14 193//14 110//14
f 194//35 195//35 200//35 201//35
f 195//36 196//36 202//36 200//36
f 198//2 201//2 200//2 197//2
f 197//2 200//2 202//2 199//2
f 199//37 205//37 203//37 197//37
f 197//38 203//38 204//38 198//38
f 130//2 134//2 135//2 131//2
f 104//39 110//39 9//39 3//39
f 3//40 4//40 103//40 206//40
f 206//41 103//41 105//41 104//41
f 206//42 104//42 3//42
f 204//2 203//2 205//2 100//2 99//2
