# Blender v2.78 (sub 0) OBJ File: 'ship4.blend'
# www.blender.org
mtllib ship4.mtl
o ship_Cube.002
v 0.740232 0.102269 0.370175
v 0.740233 -0.102269 -0.554461
v 0.917474 0.102269 0.976896
v 0.917474 -0.102269 0.976896
v 0.740233 0.102269 -0.092143
v 1.123617 0.102269 0.595107
v 0.740233 0.022526 -0.554461
v 1.329759 -0.014001 0.213318
v 0.917474 -0.014001 0.976896
v 0.740232 -0.014001 0.370175
v 0.462003 -0.102269 1.175096
v 1.329759 -0.102269 0.213318
v 0.462003 -0.076702 1.175096
v 1.880566 -0.056610 0.602085
v 1.880566 -0.019477 0.600471
v 1.880566 -0.056587 1.026955
v 1.880566 -0.019454 1.026955
v 1.932517 -0.007971 -0.491794
v 1.906398 -0.023051 -0.491794
v 1.906397 -0.053211 1.070884
v 1.906398 -0.053211 -0.491794
v 1.958636 -0.053211 -0.491794
v 1.958636 -0.023051 -0.491794
v 1.906397 -0.023051 1.070884
v 1.958636 -0.023051 1.070884
v 1.932517 -0.038131 1.070884
v 1.945577 -0.030591 -0.491794
v 1.945577 -0.045671 -0.491794
v 1.919457 -0.045671 -0.491794
v 1.919457 -0.030591 -0.491794
v 1.932517 -0.023051 -0.491794
v 1.932517 -0.007971 -0.315434
v 1.906398 -0.053211 -0.315434
v 1.899868 -0.019281 -0.374221
v 1.899868 -0.056981 -0.374221
v 1.932517 -0.000431 -0.374221
v 1.958636 -0.053211 -0.315434
v 1.965166 -0.019281 -0.374221
v 1.965166 -0.056981 -0.374221
v 1.906398 -0.023051 -0.315434
v 1.958636 -0.023051 -0.374221
v 1.906398 -0.023051 -0.374221
v 1.958636 -0.053211 -0.374221
v 1.958636 -0.023051 -0.315434
v 1.906398 -0.053211 -0.374221
v 1.932517 -0.007971 -0.374221
v 1.945577 -0.030591 0.012722
v 1.945577 -0.045671 0.012722
v 1.919457 -0.045671 0.012722
v 1.919457 -0.030591 0.012722
v 1.932517 -0.023051 0.012722
v 0.564450 0.245481 -0.104941
v 1.899868 -0.056981 -0.315434
v 1.932517 -0.000431 -0.315434
v 1.965166 -0.019281 -0.315434
v 1.899868 -0.019281 -0.315434
v 1.965166 -0.056981 -0.315434
v 1.932517 -0.007971 1.070884
v 1.906397 -0.053211 0.693423
v 0.566881 0.250564 -0.210865
v 1.906397 -0.023051 0.693423
v 1.906397 -0.053211 1.017614
v 0.566881 0.250564 -0.000756
v 1.958636 -0.053211 1.070884
v 1.906397 -0.023051 1.017614
v 0.564450 0.245481 -0.210865
v 1.854890 -0.053211 0.693423
v 1.854890 -0.023051 0.693423
v 1.854890 -0.053211 1.017614
v 1.854890 -0.023051 1.017614
v 0.370116 0.276111 -0.173738
v 0.740232 -0.102269 0.370175
v 0.370116 0.276111 0.209911
v 0.545823 0.246173 -0.210865
v 0.576681 0.231414 -0.210865
v 0.568294 0.160758 0.165070
v 0.545548 0.228420 -0.210865
v 0.618006 0.136981 0.109965
v 0.511375 0.227273 -0.045716
v 0.461664 0.251050 0.009389
v 0.535152 0.276985 0.009389
v 0.535152 0.276985 0.109965
v 0.461664 0.251050 0.109965
v 0.511375 0.227274 0.165070
v 0.618006 0.136981 0.009389
v 0.568294 0.160758 -0.045716
v 0.496081 0.195296 0.165070
v 0.446369 0.219073 0.109965
v 0.583589 0.192735 -0.045716
v 0.607365 0.242446 0.009389
v 0.633300 0.168958 0.009389
v 0.583589 0.192735 0.165070
v 0.633300 0.168958 0.109965
v 0.607365 0.242446 0.109965
v 0.446369 0.219073 0.009389
v 0.496081 0.195296 -0.045716
v 0.563032 0.220057 -0.210865
v 0.539340 0.251587 -0.210865
v 0.584964 0.229765 -0.210865
v 0.538934 0.225338 -0.210865
v 0.564784 0.212974 -0.210865
v 0.584964 0.229765 -0.011716
v 0.564784 0.212974 -0.035571
v 0.538934 0.225338 -0.035571
v 0.539340 0.251587 -0.011716
v 0.576681 0.231414 -0.104941
v 0.563032 0.220057 -0.104941
v 0.545823 0.246173 -0.104941
v 0.545548 0.228420 -0.104941
v 0.167396 0.117169 -0.022933
v 0.289629 0.097131 0.454269
v 0.167396 0.022894 -0.022933
v 0.289629 0.021638 0.454269
v 0.333998 -0.022731 0.454269
v 0.333998 0.132378 0.454269
v 0.141049 0.021638 0.245727
v 0.141049 0.097131 0.245727
v -0.000000 -0.102269 0.049648
v 0.000001 -0.102269 -1.571505
v -0.740233 0.102269 0.370174
v -0.740232 -0.102269 -0.554462
v -0.917475 0.102269 0.976896
v -0.917475 -0.102269 0.976896
v 0.000000 0.102269 -0.760929
v -0.740232 0.102269 -0.092144
v -1.123617 0.102269 0.595107
v 0.000001 -0.028680 -1.571505
v -0.740232 0.022526 -0.554462
v -1.329759 -0.014001 0.213317
v -0.917475 -0.014001 0.976896
v -0.740233 -0.014001 0.370174
v -0.462004 -0.102269 1.175096
v -1.329759 -0.102269 0.213317
v -0.462004 -0.076702 1.175096
v -1.880566 -0.056610 0.602084
v -1.880566 -0.019477 0.600470
v -1.880566 -0.056587 1.026953
v -1.880566 -0.019454 1.026953
v -1.932517 -0.007971 -0.491796
v -1.906397 -0.023051 -0.491796
v -1.906398 -0.053211 1.070883
v -1.906397 -0.053211 -0.491796
v -1.958636 -0.053211 -0.491796
v -1.958636 -0.023051 -0.491796
v -1.906398 -0.023051 1.070883
v -1.932517 -0.038131 1.070883
v -1.945577 -0.030591 -0.491796
v -1.945577 -0.045671 -0.491796
v -1.919457 -0.045671 -0.491796
v -1.919457 -0.030591 -0.491796
v -1.932517 -0.023051 -0.491796
v -1.932517 -0.007971 -0.315435
v -1.906397 -0.053211 -0.315435
v -1.899868 -0.019281 -0.374222
v -1.899868 -0.056981 -0.374222
v -1.932517 -0.000431 -0.374222
v -1.958636 -0.053211 -0.315435
v -1.965166 -0.019281 -0.374222
v -1.965166 -0.056981 -0.374222
v -1.906397 -0.023051 -0.315435
v -1.958636 -0.023051 -0.374222
v -1.906397 -0.023051 -0.374222
v -1.958636 -0.053211 -0.374222
v -1.958636 -0.023051 -0.315435
v -1.906397 -0.053211 -0.374222
v -1.932517 -0.007971 -0.374222
v -1.945577 -0.030591 0.012720
v -1.945577 -0.045671 0.012720
v -1.919457 -0.045671 0.012720
v -1.919457 -0.030591 0.012720
v -1.932517 -0.023051 0.012720
v -0.564450 0.245481 -0.104942
v -1.899868 -0.056981 -0.315435
v -1.932517 -0.000431 -0.315435
v -1.965166 -0.019281 -0.315435
v -1.899868 -0.019281 -0.315435
v -1.965166 -0.056981 -0.315435
v -1.906398 -0.053211 0.693422
v -0.566881 0.250564 -0.210866
v -1.906398 -0.023051 0.693422
v -1.958637 -0.023051 1.070883
v -1.906398 -0.053211 1.017613
v -0.566881 0.250564 -0.000756
v -1.958637 -0.053211 1.070883
v -1.906398 -0.023051 1.017613
v -1.932517 -0.007971 1.070883
v -0.564450 0.245481 -0.210866
v -1.854891 -0.053211 0.693422
v -1.854891 -0.023051 0.693422
v -1.854891 -0.053211 1.017613
v -1.854891 -0.023051 1.017613
v 0.000000 0.276111 -0.522813
v -0.370116 0.276111 -0.173738
v -0.740233 -0.102269 0.370174
v -0.370116 0.276111 0.209911
v -0.000000 0.276111 0.049648
v -0.545822 0.246173 -0.210866
v -0.576681 0.231414 -0.210866
v -0.568294 0.160758 0.165070
v -0.545548 0.228420 -0.210866
v -0.618006 0.136981 0.109964
v -0.511375 0.227273 -0.045716
v -0.461664 0.251050 0.009389
v -0.535152 0.276985 0.009389
v -0.535152 0.276985 0.109965
v -0.461664 0.251050 0.109965
v -0.511375 0.227274 0.165070
v -0.618006 0.136981 0.009389
v -0.568294 0.160758 -0.045716
v -0.496081 0.195296 0.165070
v -0.446369 0.219073 0.109965
v -0.583589 0.192735 -0.045716
v -0.607365 0.242446 0.009389
v -0.633300 0.168958 0.009389
v -0.583589 0.192735 0.165070
v -0.633300 0.168958 0.109964
v -0.607365 0.242446 0.109965
v -0.446369 0.219073 0.009389
v -0.496081 0.195296 -0.045716
v -0.563032 0.220057 -0.210866
v -0.539340 0.251587 -0.210866
v -0.584964 0.229765 -0.210866
v -0.538934 0.225338 -0.210866
v -0.564784 0.212974 -0.210866
v -0.584964 0.229765 -0.011716
v -0.564784 0.212974 -0.035572
v -0.538934 0.225338 -0.035572
v -0.539340 0.251587 -0.011716
v -0.576681 0.231414 -0.104942
v -0.563032 0.220057 -0.104942
v -0.545823 0.246173 -0.104942
v -0.545548 0.228420 -0.104942
v 0.000000 0.164307 -0.022933
v -0.000000 0.164383 0.454269
v -0.167396 0.117169 -0.022933
v -0.289630 0.097131 0.454269
v -0.167396 0.022894 -0.022933
v -0.289630 0.021638 0.454269
v -0.333998 -0.022731 0.454269
v -0.333998 0.132378 0.454269
v -0.000000 0.209932 0.454269
v -0.141049 0.021638 0.245727
v -0.141049 0.097131 0.245727
v -0.000000 0.164383 0.245727
vn 0.0000 -0.0000 -1.0000
vn 0.4315 0.9021 0.0000
vn -0.6396 0.7687 0.0000
vn 0.9021 -0.4315 0.0000
vn -0.9021 0.4315 0.0000
vn 0.6396 -0.7687 -0.0000
vn -0.2717 0.7700 -0.5774
vn -0.2717 0.7700 0.5773
vn 0.9999 -0.0154 -0.0000
vn -0.7546 -0.6561 0.0000
vn 0.7700 0.2717 -0.5774
vn 0.7700 0.2717 0.5773
vn 0.3051 0.6379 -0.7071
vn -0.6379 0.3051 -0.7071
vn 0.6379 -0.3051 -0.7071
vn -0.3328 0.9430 0.0000
vn 0.6379 -0.3051 0.7071
vn -0.4315 -0.9021 0.0000
vn 0.9430 0.3328 0.0000
vn -0.9999 0.0154 0.0000
vn -0.6379 0.3051 0.7071
vn 0.3051 0.6379 0.7071
vn -0.0000 -0.0000 1.0000
vn 0.7546 0.6561 0.0000
vn 0.0371 0.9993 0.0000
vn -0.0371 -0.9993 0.0000
vn 0.2400 0.9652 -0.1034
vn 0.9441 -0.0000 -0.3296
vn -0.0000 1.0000 0.0000
vn -0.8144 0.0000 0.5803
vn -0.2964 -0.9492 0.1056
vn -0.4315 0.9021 -0.0000
vn 0.6396 0.7687 0.0000
vn -0.9021 -0.4315 -0.0000
vn 0.9021 0.4315 0.0000
vn -0.6396 -0.7687 -0.0000
vn 0.2717 0.7700 -0.5774
vn 0.2717 0.7700 0.5774
vn -0.9999 -0.0154 -0.0000
vn 0.7546 -0.6561 0.0000
vn -0.7700 0.2717 -0.5774
vn -0.7700 0.2717 0.5773
vn -0.3051 0.6379 -0.7071
vn 0.6379 0.3051 -0.7071
vn -0.6379 -0.3051 -0.7071
vn 0.3328 0.9430 0.0000
vn -0.6379 -0.3051 0.7071
vn 0.4315 -0.9021 0.0000
vn -0.9430 0.3328 -0.0000
vn 0.9999 0.0154 0.0000
vn 0.6379 0.3051 0.7071
vn -0.3051 0.6379 0.7071
vn -0.7546 0.6561 -0.0000
vn -0.0371 0.9993 0.0000
vn 0.0371 -0.9993 0.0000
vn -0.2400 0.9652 -0.1034
vn -0.9441 -0.0000 -0.3296
vn 0.8144 0.0000 0.5803
vn 0.2964 -0.9492 0.1056
vn 0.0000 -0.9955 -0.0952
vn 0.0547 -0.9983 0.0190
vn 0.0000 -1.0000 0.0000
vn -0.3974 -0.0000 0.9177
vn 0.2680 0.9508 -0.1553
vn 0.1501 0.9754 -0.1614
vn 0.7932 0.0000 -0.6090
vn 0.8085 0.0000 -0.5885
vn 0.3990 0.0000 0.9169
vn -0.1212 0.9920 0.0354
vn -0.9599 0.0000 0.2804
vn -0.9451 0.0000 -0.3267
vn 0.5761 -0.0105 -0.8173
vn 0.8799 0.0000 0.4751
vn 1.0000 -0.0000 -0.0000
vn 0.0066 1.0000 0.0023
vn -0.0519 0.0000 0.9987
vn 0.4658 0.7245 -0.5081
vn 0.4251 0.9051 0.0000
vn -0.0547 -0.9983 0.0190
vn 0.3974 -0.0000 0.9177
vn -0.2680 0.9508 -0.1553
vn -0.1501 0.9754 -0.1614
vn -0.7932 0.0000 -0.6090
vn -0.8085 0.0000 -0.5885
vn -0.3990 0.0000 0.9169
vn 0.1212 0.9920 0.0354
vn 0.9599 0.0000 0.2804
vn 0.9451 0.0000 -0.3267
vn -0.5761 -0.0105 -0.8173
vn -0.8799 0.0000 0.4751
vn -1.0000 -0.0000 -0.0000
vn -0.0066 1.0000 0.0023
vn 0.0519 0.0000 0.9987
vn -0.4658 0.7245 -0.5081
vn -0.4251 0.9051 -0.0000
vn -0.5000 0.8660 0.0000
vn 0.5000 0.8660 0.0000
vn 0.5000 -0.8660 0.0000
vn -0.5000 -0.8660 -0.0000
usemtl Material.002
s off
f 99//1 75//1 66//1 60//1
f 90//2 81//2 82//2 94//2
f 97//3 107//3 106//3 75//3
f 93//4 78//4 85//4 91//4
f 89//1 86//1 96//1 79//1
f 80//5 95//5 88//5 83//5
f 103//6 101//6 99//6 102//6
f 79//7 80//7 81//7
f 82//8 83//8 84//8
f 77//9 74//9 108//9 109//9
f 75//10 106//10 52//10 66//10
f 89//11 90//11 91//11
f 92//12 93//12 94//12
f 103//13 102//13 90//13 89//13
f 95//14 80//14 79//14 96//14
f 91//15 85//15 86//15 89//15
f 80//16 83//16 82//16 81//16
f 92//17 76//17 78//17 93//17
f 89//13 79//13 104//13 103//13
f 103//18 104//18 100//18 101//18
f 90//19 94//19 93//19 91//19
f 100//20 104//20 105//20 98//20
f 87//21 84//21 83//21 88//21
f 102//13 63//13 105//13 81//13 90//13
f 84//22 92//22 94//22 82//22
f 84//23 87//23 76//23 92//23
f 63//24 102//24 99//24 60//24
f 105//25 63//25 60//25 98//25
f 66//26 52//26 108//26 74//26
f 98//1 60//1 66//1 74//1
f 101//1 100//1 77//1 97//1
f 104//13 79//13 81//13 105//13
f 108//1 52//1 106//1 107//1 109//1
f 100//1 98//1 74//1 77//1
f 101//1 97//1 75//1 99//1
f 97//2 77//2 109//2 107//2
f 233//27 241//27 115//27 110//27
f 238//23 239//23 114//23 113//23
f 110//28 115//28 114//28 112//28
f 111//23 113//23 114//23 115//23
f 234//23 111//23 115//23 241//23
f 116//29 242//29 238//29 113//29
f 244//23 243//23 242//23
f 113//30 111//30 117//30 116//30
f 111//31 234//31 244//31 117//31
f 222//1 179//1 187//1 198//1
f 213//32 217//32 205//32 204//32
f 220//33 198//33 229//33 230//33
f 216//34 214//34 208//34 201//34
f 212//1 202//1 219//1 209//1
f 203//35 206//35 211//35 218//35
f 226//36 225//36 222//36 224//36
f 202//37 204//37 203//37
f 205//38 207//38 206//38
f 200//39 232//39 231//39 197//39
f 198//40 187//40 172//40 229//40
f 212//41 214//41 213//41
f 215//42 217//42 216//42
f 226//43 212//43 213//43 225//43
f 218//44 219//44 202//44 203//44
f 214//45 212//45 209//45 208//45
f 203//46 204//46 205//46 206//46
f 215//47 216//47 201//47 199//47
f 212//43 226//43 227//43 202//43
f 226//48 224//48 223//48 227//48
f 213//49 214//49 216//49 217//49
f 223//50 221//50 228//50 227//50
f 210//51 211//51 206//51 207//51
f 225//43 213//43 204//43 228//43 183//43
f 207//52 205//52 217//52 215//52
f 207//23 215//23 199//23 210//23
f 183//53 179//53 222//53 225//53
f 228//54 221//54 179//54 183//54
f 187//55 197//55 231//55 172//55
f 221//1 197//1 187//1 179//1
f 224//1 220//1 200//1 223//1
f 227//43 228//43 204//43 202//43
f 231//1 232//1 230//1 229//1 172//1
f 223//1 200//1 197//1 221//1
f 224//1 222//1 198//1 220//1
f 220//32 230//32 232//32 200//32
f 233//56 235//56 240//56 241//56
f 235//57 237//57 239//57 240//57
f 236//23 240//23 239//23 238//23
f 234//23 241//23 240//23 236//23
f 238//58 242//58 243//58 236//58
f 236//59 243//59 244//59 234//59
f 237//60 112//60 114//60 239//60
f 117//23 244//23 242//23 116//23
usemtl Material
f 12//61 14//61 16//61 4//61
f 119//62 2//62 72//62 118//62
f 2//62 12//62 4//62 72//62
f 72//63 73//63 196//63 118//63
f 1//29 3//29 6//29 5//29
f 5//64 6//64 8//64 7//64
f 124//65 5//65 7//65 127//65
f 72//63 10//63 1//63 73//63
f 7//66 8//66 12//66 2//66
f 127//67 7//67 2//67 119//67
f 4//68 9//68 13//68 11//68
f 9//69 10//69 13//69
f 3//70 1//70 10//70 9//70
f 72//62 4//62 11//62
f 10//71 72//71 11//71 13//71
f 12//72 8//72 15//72 14//72
f 6//73 3//73 9//73 8//73
f 15//74 17//74 16//74 14//74
f 8//75 9//75 17//75 15//75
f 9//76 4//76 16//76 17//76
f 196//29 73//29 71//29 192//29
f 5//77 124//77 192//77 71//77
f 1//78 5//78 71//78 73//78
f 133//79 123//79 137//79 135//79
f 119//62 118//62 194//62 121//62
f 121//62 194//62 123//62 133//62
f 194//80 118//80 196//80 195//80
f 120//29 125//29 126//29 122//29
f 125//81 128//81 129//81 126//81
f 124//82 127//82 128//82 125//82
f 194//80 195//80 120//80 131//80
f 128//83 121//83 133//83 129//83
f 127//84 119//84 121//84 128//84
f 123//85 132//85 134//85 130//85
f 130//86 134//86 131//86
f 122//87 130//87 131//87 120//87
f 194//62 132//62 123//62
f 131//88 134//88 132//88 194//88
f 133//89 135//89 136//89 129//89
f 126//90 129//90 130//90 122//90
f 136//91 135//91 137//91 138//91
f 129//92 136//92 138//92 130//92
f 130//93 138//93 137//93 123//93
f 196//29 192//29 193//29 195//29
f 125//94 193//94 192//94 124//94
f 120//95 195//95 193//95 125//95
usemtl Material.001
f 46//96 18//96 19//96 42//96
f 43//1 39//1 35//1 45//1
f 42//91 19//91 21//91 45//91
f 41//97 23//97 18//97 46//97
f 43//74 22//74 23//74 41//74
f 25//23 58//23 26//23
f 24//23 20//23 26//23
f 58//23 24//23 26//23
f 22//1 21//1 29//1 28//1
f 64//23 25//23 26//23
f 20//62 62//62 64//62
f 23//1 22//1 28//1 27//1
f 18//1 23//1 27//1 31//1
f 19//1 18//1 31//1 30//1
f 21//1 19//1 30//1 29//1
f 44//23 55//23 54//23 32//23
f 64//74 37//74 44//74 25//74
f 41//1 46//1 36//1 38//1
f 44//23 37//23 57//23 55//23
f 43//1 41//1 38//1 39//1
f 25//97 44//97 32//97 58//97
f 57//74 39//74 38//74 55//74
f 59//62 33//62 37//62 64//62
f 61//91 40//91 33//91 59//91
f 56//91 34//91 35//91 53//91
f 55//97 38//97 36//97 54//97
f 58//96 61//96 65//96
f 28//29 29//29 49//29 48//29
f 42//1 45//1 35//1 34//1
f 54//96 36//96 34//96 56//96
f 46//1 42//1 34//1 36//1
f 58//96 32//96 40//96 61//96
f 30//98 31//98 51//98 50//98
f 29//74 30//74 50//74 49//74
f 31//99 27//99 47//99 51//99
f 27//91 28//91 48//91 47//91
f 53//62 35//62 39//62 57//62
f 49//1 50//1 51//1 47//1 48//1
f 21//62 22//62 43//62 45//62
f 40//23 56//23 53//23 33//23
f 40//23 32//23 54//23 56//23
f 62//62 69//62 67//62 59//62
f 59//62 64//62 62//62
f 24//91 65//91 62//91 20//91
f 37//23 33//23 53//23 57//23
f 58//96 65//96 24//96
f 65//29 61//29 68//29 70//29
f 61//1 59//1 67//1 68//1
f 62//23 65//23 70//23 69//23
f 20//23 64//23 26//23
f 166//97 162//97 140//97 139//97
f 163//1 165//1 155//1 159//1
f 162//74 165//74 142//74 140//74
f 161//96 166//96 139//96 144//96
f 163//91 161//91 144//91 143//91
f 181//23 146//23 186//23
f 145//23 146//23 141//23
f 186//23 146//23 145//23
f 143//1 148//1 149//1 142//1
f 184//23 146//23 181//23
f 141//62 184//62 182//62
f 144//1 147//1 148//1 143//1
f 139//1 151//1 147//1 144//1
f 140//1 150//1 151//1 139//1
f 142//1 149//1 150//1 140//1
f 164//23 152//23 174//23 175//23
f 184//91 181//91 164//91 157//91
f 161//1 158//1 156//1 166//1
f 164//23 175//23 177//23 157//23
f 163//1 159//1 158//1 161//1
f 181//96 186//96 152//96 164//96
f 177//91 175//91 158//91 159//91
f 178//62 184//62 157//62 153//62
f 180//74 178//74 153//74 160//74
f 176//74 173//74 155//74 154//74
f 175//96 174//96 156//96 158//96
f 186//97 185//97 180//97
f 148//29 168//29 169//29 149//29
f 162//1 154//1 155//1 165//1
f 174//97 176//97 154//97 156//97
f 166//1 156//1 154//1 162//1
f 186//97 180//97 160//97 152//97
f 150//99 170//99 171//99 151//99
f 149//91 169//91 170//91 150//91
f 151//98 171//98 167//98 147//98
f 147//74 167//74 168//74 148//74
f 173//62 177//62 159//62 155//62
f 169//1 168//1 167//1 171//1 170//1
f 142//62 165//62 163//62 143//62
f 160//23 153//23 173//23 176//23
f 160//23 176//23 174//23 152//23
f 190//62 182//62 178//62 188//62
f 178//62 182//62 184//62
f 145//74 141//74 182//74 185//74
f 157//23 177//23 173//23 153//23
f 186//97 145//97 185//97
f 185//29 191//29 189//29 180//29
f 180//1 189//1 188//1 178//1
f 182//23 190//23 191//23 185//23
f 141//23 146//23 184//23
